<svg id="Component_1_1" data-name="Component 1 – 1" xmlns="http://www.w3.org/2000/svg" width="601.895" height="2561.424" viewBox="0 0 601.895 2561.424">
  <path id="shap" d="M492,0C763.724,0,984,219.6,984,490.5S763.724,981,492,981s46-219.6,46-490.5S220.276,0,492,0Z" transform="translate(-382.105)"/>
  <path id="shap-2" data-name="shap" d="M471.055,0C690.991,0,869.284,177.746,869.284,397.015S690.991,794.03,471.055,794.03s37.233-177.746,37.233-397.015S251.119,0,471.055,0Z" transform="translate(-382.105 1056.485)"/>
  <path id="shap-3" data-name="shap" d="M453.288,0c176,0,318.684,142.242,318.684,317.712S629.292,635.424,453.288,635.424s29.8-142.242,29.8-317.712S277.283,0,453.288,0Z" transform="translate(-382.105 1926)"/>
</svg>
